<?xml version="1.0" encoding="utf-8"?>
<!-- Svg Vector Icons : http://www.onlinewebfonts.com/icon -->
<!DOCTYPE svg PUBLIC "-//W3C//DTD SVG 1.1//EN" "http://www.w3.org/Graphics/SVG/1.1/DTD/svg11.dtd">
<svg version="1.1" xmlns="http://www.w3.org/2000/svg" xmlns:xlink="http://www.w3.org/1999/xlink" x="0px" y="0px" viewBox="0 0 1000 1000" enable-background="new 0 0 1000 1000" xml:space="preserve">
<metadata> Svg Vector Icons : http://www.onlinewebfonts.com/icon </metadata>
<g><g transform="translate(0.000000,512.000000) scale(0.100000,-0.100000)"><path d="M4689.7,5016.6c-759.2-65.2-1353.5-232-1968.9-554.1c-893.4-465.9-1652.6-1236.6-2105-2137.6C264.9,1625.1,100,923.4,100,120.1c0-801.4,164.9-1506.9,513.8-2202.8c400.7-795.6,1071.7-1522.2,1842.4-1991.9c1608.5-981.6,3671.4-937.5,5249.1,111.2C9743.3-2608,10471.8,18.5,9423.1,2229c-245.4,511.9-540.6,927.9-964.3,1353.5c-784.1,784.1-1704.4,1240.4-2810.5,1397.6C5448.9,5008.9,4854.5,5031.9,4689.7,5016.6z M5586.9,2656.5l-5.7-820.5l-233.9-5.7l-235.8-5.8v-216.6v-216.6l139.9-13.4c389.2-38.3,718.9-161,776.4-289.5c13.4-26.8,23-126.5,23-220.5c0-92,5.7-182.1,11.5-199.4c9.6-26.8,70.9-30.7,488.9-30.7h477.4l3.8,341.3l5.8,339.3l590.5,5.7l588.6,3.8V513.2v-814.8h-594.3h-594.3V-4.5v297.2h-481.2h-481.2l5.8-751.5c3.8-573.2,0-764.9-19.2-797.5c-30.7-59.4-178.3-149.5-302.9-189.8l-101.6-32.6v-417.9v-417.9h287.6h287.6l3.8,360.4l5.8,358.5l590.4,5.7l588.6,3.8v-824.4v-824.4h-594.3h-594.3v297.2v297.2h-460.1h-460.1v552.1v550.2h-373.9h-373.8v-550.2v-552.1l-425.6-3.8l-427.5-5.8l-5.7-283.7l-5.8-281.8h-592.4h-594.3v814.8v814.8h594.3h594.3v-364.3v-364.3h258.8h258.8v429.4v427.5l-122.7,61.4c-210.9,103.5-214.7,109.3-228.1,531.1c-7.7,199.4-13.4,475.4-13.4,613.5s-5.7,316.3-11.5,396.9l-13.4,147.6h-427.5h-429.4V-4.5v-297.2h-594.3h-594.3v814.8V1328l590.5-3.8l588.6-5.7l5.7-339.3l3.8-341.3h431.4h431.4v209c0,193.6,3.8,214.7,46,264.6c101.6,120.8,419.9,233.9,745.8,264.6l147.6,13.4v218.5v218.6h-182.1h-182.1v824.4v824.4h594.3h594.3L5586.9,2656.5z"/><path d="M4555.5,3120.5v-163H5006h450.5v163v163H5006h-450.5V3120.5z"/><path d="M4498,1126.7c-243.5-44.1-402.6-120.8-402.6-191.7c0-67.1,153.4-140,394.9-186c172.5-32.6,724.7-32.6,899.2,0c161,30.7,324,101.6,352.7,153.4c47.9,88.2-99.7,176.4-377.7,224.3C5163.2,1163.1,4695.4,1161.2,4498,1126.7z"/><path d="M1929,963.7V810.3h450.5H2830v153.4v153.4h-450.5H1929V963.7z"/><path d="M7201.1,963.7V810.3h450.5h450.5v153.4v153.4h-450.5h-450.5V963.7z"/><path d="M2676.7-1931.2v-153.4h450.5h450.5v153.4v153.4h-450.5h-450.5V-1931.2z"/><path d="M6376.8-1960v-163h439h437.1l11.5,69c5.8,36.4,5.8,109.3,0,163l-11.5,93.9h-437.1h-439V-1960z"/></g></g>
</svg>