<svg width="494" height="492" viewBox="0 0 494 492" fill="none" xmlns="http://www.w3.org/2000/svg">
<path fill-rule="evenodd" clip-rule="evenodd" d="M402.951 230C410.723 210.688 415 189.593 415 167.5C415 74.9923 340.008 0 247.5 0C154.992 0 80 74.9923 80 167.5C80 189.593 84.2775 210.688 92.0494 230C101.702 253.987 116.746 275.224 135.681 292.213C167.873 336.713 204.163 385.145 211.5 394C221.991 406.661 228.032 429.53 234.169 452.759C236.514 461.637 238.873 470.567 241.5 479H253C254.51 473.686 255.993 468.236 257.484 462.756L257.484 462.755L257.485 462.755C264.553 436.779 271.809 410.115 283 394C286.892 388.396 299.168 372.178 314.487 351.94L314.489 351.937L314.491 351.934C328.383 333.583 344.776 311.926 359.688 291.88C378.28 275.1 393.092 254.21 402.69 230.643C402.804 230.416 402.907 230.201 403 230H402.951ZM247.5 285C312.946 285 366 231.946 366 166.5C366 101.054 312.946 48 247.5 48C182.054 48 129 101.054 129 166.5C129 231.946 182.054 285 247.5 285Z" fill="#3A484A"/>
<rect x="182" y="90" width="131" height="45" rx="5" fill="#428C97"/>
<rect x="182" y="144" width="131" height="45" rx="5" fill="#428C97"/>
<rect x="182" y="195" width="131" height="45" rx="5" fill="#428C97"/>
</svg>
