<svg width="437" height="71" viewBox="0 0 437 71" fill="none" xmlns="http://www.w3.org/2000/svg">
<path d="M26.7227 16.9609H34.4219V53.9453C34.4219 57.3672 33.6953 60.2734 32.2422 62.6641C30.7891 65.0547 28.7617 66.8711 26.1602 68.1133C23.5586 69.3789 20.5469 70.0117 17.125 70.0117C15.6719 70.0117 14.0547 69.8008 12.2734 69.3789C10.5156 68.957 8.80469 68.2773 7.14062 67.3398C5.5 66.4258 4.12891 65.2188 3.02734 63.7188L7 58.7266C8.35938 60.3438 9.85938 61.5273 11.5 62.2773C13.1406 63.0273 14.8633 63.4023 16.668 63.4023C18.6133 63.4023 20.2656 63.0391 21.625 62.3125C23.0078 61.6094 24.0742 60.5664 24.8242 59.1836C25.5742 57.8008 25.9492 56.1133 25.9492 54.1211V25.5742L26.7227 16.9609ZM0.882812 36.4023V35.6641C0.882812 32.7812 1.23438 30.1562 1.9375 27.7891C2.64062 25.3984 3.64844 23.3477 4.96094 21.6367C6.27344 19.9023 7.86719 18.5781 9.74219 17.6641C11.6172 16.7266 13.7383 16.2578 16.1055 16.2578C18.5664 16.2578 20.6641 16.7031 22.3984 17.5938C24.1562 18.4844 25.6211 19.7617 26.793 21.4258C27.9648 23.0664 28.8789 25.0352 29.5352 27.332C30.2148 29.6055 30.7188 32.1367 31.0469 34.9258V37.2812C30.7422 40 30.2266 42.4844 29.5 44.7344C28.7734 46.9844 27.8125 48.9297 26.6172 50.5703C25.4219 52.2109 23.9453 53.4766 22.1875 54.3672C20.4531 55.2578 18.4023 55.7031 16.0352 55.7031C13.7148 55.7031 11.6172 55.2227 9.74219 54.2617C7.89062 53.3008 6.29688 51.9531 4.96094 50.2188C3.64844 48.4844 2.64062 46.4453 1.9375 44.1016C1.23438 41.7344 0.882812 39.168 0.882812 36.4023ZM9.35547 35.6641V36.4023C9.35547 38.1367 9.51953 39.7539 9.84766 41.2539C10.1992 42.7539 10.7266 44.0781 11.4297 45.2266C12.1562 46.3516 13.0703 47.2422 14.1719 47.8984C15.2969 48.5312 16.6211 48.8477 18.1445 48.8477C20.1367 48.8477 21.7656 48.4258 23.0312 47.582C24.3203 46.7383 25.3047 45.6016 25.9844 44.1719C26.6875 42.7188 27.1797 41.1016 27.4609 39.3203V32.957C27.3203 31.5742 27.0273 30.2852 26.582 29.0898C26.1602 27.8945 25.5859 26.8516 24.8594 25.9609C24.1328 25.0469 23.2188 24.3438 22.1172 23.8516C21.0156 23.3359 19.7148 23.0781 18.2148 23.0781C16.6914 23.0781 15.3672 23.4062 14.2422 24.0625C13.1172 24.7188 12.1914 25.6211 11.4648 26.7695C10.7617 27.918 10.2344 29.2539 9.88281 30.7773C9.53125 32.3008 9.35547 33.9297 9.35547 35.6641ZM51.7188 24.2031V55H43.2461V16.9609H51.332L51.7188 24.2031ZM63.3555 16.7148L63.2852 24.5898C62.7695 24.4961 62.207 24.4258 61.5977 24.3789C61.0117 24.332 60.4258 24.3086 59.8398 24.3086C58.3867 24.3086 57.1094 24.5195 56.0078 24.9414C54.9062 25.3398 53.9805 25.9258 53.2305 26.6992C52.5039 27.4492 51.9414 28.3633 51.543 29.4414C51.1445 30.5195 50.9102 31.7266 50.8398 33.0625L48.9062 33.2031C48.9062 30.8125 49.1406 28.5977 49.6094 26.5586C50.0781 24.5195 50.7812 22.7266 51.7188 21.1797C52.6797 19.6328 53.875 18.4258 55.3047 17.5586C56.7578 16.6914 58.4336 16.2578 60.332 16.2578C60.8477 16.2578 61.3984 16.3047 61.9844 16.3984C62.5938 16.4922 63.0508 16.5977 63.3555 16.7148ZM84.7305 55.7031C81.918 55.7031 79.375 55.2461 77.1016 54.332C74.8516 53.3945 72.9297 52.0938 71.3359 50.4297C69.7656 48.7656 68.5586 46.8086 67.7148 44.5586C66.8711 42.3086 66.4492 39.8828 66.4492 37.2812V35.875C66.4492 32.8984 66.8828 30.2031 67.75 27.7891C68.6172 25.375 69.8242 23.3125 71.3711 21.6016C72.918 19.8672 74.7461 18.543 76.8555 17.6289C78.9648 16.7148 81.25 16.2578 83.7109 16.2578C86.4297 16.2578 88.8086 16.7148 90.8477 17.6289C92.8867 18.543 94.5742 19.832 95.9102 21.4961C97.2695 23.1367 98.2773 25.0938 98.9336 27.3672C99.6133 29.6406 99.9531 32.1484 99.9531 34.8906V38.5117H70.5625V32.4297H91.5859V31.7617C91.5391 30.2383 91.2344 28.8086 90.6719 27.4727C90.1328 26.1367 89.3008 25.0586 88.1758 24.2383C87.0508 23.418 85.5508 23.0078 83.6758 23.0078C82.2695 23.0078 81.0156 23.3125 79.9141 23.9219C78.8359 24.5078 77.9336 25.3633 77.207 26.4883C76.4805 27.6133 75.918 28.9727 75.5195 30.5664C75.1445 32.1367 74.957 33.9062 74.957 35.875V37.2812C74.957 38.9453 75.1797 40.4922 75.625 41.9219C76.0938 43.3281 76.7734 44.5586 77.6641 45.6133C78.5547 46.668 79.6328 47.5 80.8984 48.1094C82.1641 48.6953 83.6055 48.9883 85.2227 48.9883C87.2617 48.9883 89.0781 48.5781 90.6719 47.7578C92.2656 46.9375 93.6484 45.7773 94.8203 44.2773L99.2852 48.6016C98.4648 49.7969 97.3984 50.9453 96.0859 52.0469C94.7734 53.125 93.168 54.0039 91.2695 54.6836C89.3945 55.3633 87.2148 55.7031 84.7305 55.7031ZM123.332 55.7031C120.52 55.7031 117.977 55.2461 115.703 54.332C113.453 53.3945 111.531 52.0938 109.938 50.4297C108.367 48.7656 107.16 46.8086 106.316 44.5586C105.473 42.3086 105.051 39.8828 105.051 37.2812V35.875C105.051 32.8984 105.484 30.2031 106.352 27.7891C107.219 25.375 108.426 23.3125 109.973 21.6016C111.52 19.8672 113.348 18.543 115.457 17.6289C117.566 16.7148 119.852 16.2578 122.312 16.2578C125.031 16.2578 127.41 16.7148 129.449 17.6289C131.488 18.543 133.176 19.832 134.512 21.4961C135.871 23.1367 136.879 25.0938 137.535 27.3672C138.215 29.6406 138.555 32.1484 138.555 34.8906V38.5117H109.164V32.4297H130.188V31.7617C130.141 30.2383 129.836 28.8086 129.273 27.4727C128.734 26.1367 127.902 25.0586 126.777 24.2383C125.652 23.418 124.152 23.0078 122.277 23.0078C120.871 23.0078 119.617 23.3125 118.516 23.9219C117.438 24.5078 116.535 25.3633 115.809 26.4883C115.082 27.6133 114.52 28.9727 114.121 30.5664C113.746 32.1367 113.559 33.9062 113.559 35.875V37.2812C113.559 38.9453 113.781 40.4922 114.227 41.9219C114.695 43.3281 115.375 44.5586 116.266 45.6133C117.156 46.668 118.234 47.5 119.5 48.1094C120.766 48.6953 122.207 48.9883 123.824 48.9883C125.863 48.9883 127.68 48.5781 129.273 47.7578C130.867 46.9375 132.25 45.7773 133.422 44.2773L137.887 48.6016C137.066 49.7969 136 50.9453 134.688 52.0469C133.375 53.125 131.77 54.0039 129.871 54.6836C127.996 55.3633 125.816 55.7031 123.332 55.7031ZM153.566 25.082V55H145.094V16.9609H153.074L153.566 25.082ZM152.055 34.5742L149.312 34.5391C149.336 31.8438 149.711 29.3711 150.438 27.1211C151.188 24.8711 152.219 22.9375 153.531 21.3203C154.867 19.7031 156.461 18.4609 158.312 17.5938C160.164 16.7031 162.227 16.2578 164.5 16.2578C166.328 16.2578 167.98 16.5156 169.457 17.0312C170.957 17.5234 172.234 18.332 173.289 19.457C174.367 20.582 175.188 22.0469 175.75 23.8516C176.312 25.6328 176.594 27.8242 176.594 30.4258V55H168.086V30.3906C168.086 28.5625 167.816 27.1211 167.277 26.0664C166.762 24.9883 166 24.2266 164.992 23.7812C164.008 23.3125 162.777 23.0781 161.301 23.0781C159.848 23.0781 158.547 23.3828 157.398 23.9922C156.25 24.6016 155.277 25.4336 154.48 26.4883C153.707 27.543 153.109 28.7617 152.688 30.1445C152.266 31.5273 152.055 33.0039 152.055 34.5742Z" fill="#62B252"/>
<path d="M219.93 44.5938C219.93 43.7969 219.719 43.082 219.297 42.4492C218.875 41.8164 218.078 41.2422 216.906 40.7266C215.758 40.1875 214.07 39.6836 211.844 39.2148C209.875 38.793 208.059 38.2656 206.395 37.6328C204.73 37 203.301 36.2383 202.105 35.3477C200.91 34.4336 199.973 33.3672 199.293 32.1484C198.637 30.9062 198.309 29.4766 198.309 27.8594C198.309 26.2891 198.648 24.8125 199.328 23.4297C200.008 22.0234 200.992 20.793 202.281 19.7383C203.57 18.6602 205.141 17.8164 206.992 17.207C208.844 16.5742 210.93 16.2578 213.25 16.2578C216.484 16.2578 219.262 16.7852 221.582 17.8398C223.926 18.8945 225.719 20.3477 226.961 22.1992C228.203 24.0273 228.824 26.0898 228.824 28.3867H219.543C219.543 27.3789 219.309 26.4648 218.84 25.6445C218.395 24.8242 217.703 24.168 216.766 23.6758C215.828 23.1602 214.645 22.9023 213.215 22.9023C211.926 22.9023 210.836 23.1133 209.945 23.5352C209.078 23.957 208.422 24.5078 207.977 25.1875C207.531 25.8672 207.309 26.6172 207.309 27.4375C207.309 28.0469 207.426 28.5977 207.66 29.0898C207.918 29.5586 208.328 29.9922 208.891 30.3906C209.453 30.7891 210.215 31.1523 211.176 31.4805C212.16 31.8086 213.367 32.125 214.797 32.4297C217.633 32.9922 220.105 33.7422 222.215 34.6797C224.348 35.5938 226.012 36.8125 227.207 38.3359C228.402 39.8594 229 41.8047 229 44.1719C229 45.8594 228.637 47.4062 227.91 48.8125C227.184 50.1953 226.129 51.4023 224.746 52.4336C223.363 53.4648 221.711 54.2734 219.789 54.8594C217.867 55.4219 215.699 55.7031 213.285 55.7031C209.793 55.7031 206.84 55.082 204.426 53.8398C202.012 52.5742 200.184 50.9805 198.941 49.0586C197.699 47.1133 197.078 45.0977 197.078 43.0117H205.973C206.043 44.4883 206.441 45.6719 207.168 46.5625C207.895 47.4531 208.809 48.0977 209.91 48.4961C211.035 48.8711 212.219 49.0586 213.461 49.0586C214.867 49.0586 216.051 48.8711 217.012 48.4961C217.973 48.0977 218.699 47.5703 219.191 46.9141C219.684 46.2344 219.93 45.4609 219.93 44.5938ZM245.172 1V55H235.855V1H245.172ZM243.695 34.6094H240.953C240.953 31.9609 241.305 29.5234 242.008 27.2969C242.711 25.0703 243.707 23.1367 244.996 21.4961C246.285 19.832 247.82 18.543 249.602 17.6289C251.406 16.7148 253.398 16.2578 255.578 16.2578C257.453 16.2578 259.152 16.5273 260.676 17.0664C262.223 17.582 263.547 18.4141 264.648 19.5625C265.75 20.7109 266.594 22.2109 267.18 24.0625C267.789 25.8906 268.094 28.1172 268.094 30.7422V55H258.742V30.6719C258.742 28.9141 258.484 27.5312 257.969 26.5234C257.453 25.4922 256.715 24.7539 255.754 24.3086C254.816 23.8633 253.656 23.6406 252.273 23.6406C250.773 23.6406 249.484 23.9336 248.406 24.5195C247.328 25.082 246.438 25.8672 245.734 26.875C245.055 27.8828 244.539 29.043 244.188 30.3555C243.859 31.668 243.695 33.0859 243.695 34.6094ZM286.129 16.9609V55H276.812V16.9609H286.129ZM276.18 7.01172C276.18 5.62891 276.648 4.48047 277.586 3.56641C278.547 2.65234 279.836 2.19531 281.453 2.19531C283.07 2.19531 284.348 2.65234 285.285 3.56641C286.246 4.48047 286.727 5.62891 286.727 7.01172C286.727 8.37109 286.246 9.50781 285.285 10.4219C284.348 11.3359 283.07 11.793 281.453 11.793C279.836 11.793 278.547 11.3359 277.586 10.4219C276.648 9.50781 276.18 8.37109 276.18 7.01172ZM307.152 55H297.801V13.4453C297.801 10.5859 298.352 8.18359 299.453 6.23828C300.555 4.26953 302.125 2.78125 304.164 1.77344C306.203 0.765625 308.605 0.261719 311.371 0.261719C312.285 0.261719 313.152 0.320313 313.973 0.4375C314.816 0.554687 315.648 0.71875 316.469 0.929688L316.293 7.99609C315.848 7.87891 315.355 7.79687 314.816 7.75C314.301 7.70313 313.727 7.67969 313.094 7.67969C311.828 7.67969 310.75 7.90234 309.859 8.34766C308.969 8.79297 308.289 9.44922 307.82 10.3164C307.375 11.1602 307.152 12.2031 307.152 13.4453V55ZM314.852 16.9609V23.6406H292.07V16.9609H314.852ZM338.582 16.9609V23.6406H316.785V16.9609H338.582ZM322.621 7.60938H331.938V44.0312C331.938 45.1562 332.09 46.0234 332.395 46.6328C332.699 47.2422 333.156 47.6523 333.766 47.8633C334.375 48.0742 335.102 48.1797 335.945 48.1797C336.555 48.1797 337.117 48.1445 337.633 48.0742C338.148 48.0039 338.582 47.9336 338.934 47.8633L338.969 54.8242C338.195 55.082 337.316 55.293 336.332 55.457C335.371 55.6211 334.281 55.7031 333.062 55.7031C330.977 55.7031 329.148 55.3516 327.578 54.6484C326.008 53.9219 324.789 52.7617 323.922 51.168C323.055 49.5508 322.621 47.418 322.621 44.7695V7.60938ZM354.613 16.9609V55H345.297V16.9609H354.613ZM344.664 7.01172C344.664 5.62891 345.133 4.48047 346.07 3.56641C347.031 2.65234 348.32 2.19531 349.938 2.19531C351.555 2.19531 352.832 2.65234 353.77 3.56641C354.73 4.48047 355.211 5.62891 355.211 7.01172C355.211 8.37109 354.73 9.50781 353.77 10.4219C352.832 11.3359 351.555 11.793 349.938 11.793C348.32 11.793 347.031 11.3359 346.07 10.4219C345.133 9.50781 344.664 8.37109 344.664 7.01172ZM372.578 25.082V55H363.297V16.9609H372.016L372.578 25.082ZM371.102 34.6094H368.359C368.383 31.8438 368.758 29.3359 369.484 27.0859C370.211 24.8359 371.23 22.9023 372.543 21.2852C373.879 19.668 375.461 18.4258 377.289 17.5586C379.117 16.6914 381.156 16.2578 383.406 16.2578C385.234 16.2578 386.887 16.5156 388.363 17.0312C389.84 17.5469 391.105 18.3672 392.16 19.4922C393.238 20.6172 394.059 22.0938 394.621 23.9219C395.207 25.7266 395.5 27.9531 395.5 30.6016V55H386.148V30.5312C386.148 28.7969 385.891 27.4258 385.375 26.418C384.883 25.4102 384.156 24.6953 383.195 24.2734C382.258 23.8516 381.098 23.6406 379.715 23.6406C378.285 23.6406 377.031 23.9336 375.953 24.5195C374.898 25.082 374.008 25.8672 373.281 26.875C372.578 27.8828 372.039 29.043 371.664 30.3555C371.289 31.668 371.102 33.0859 371.102 34.6094ZM427.879 16.9609H436.316V53.8398C436.316 57.2852 435.566 60.2031 434.066 62.5938C432.59 65.0078 430.516 66.8359 427.844 68.0781C425.172 69.3438 422.066 69.9766 418.527 69.9766C417.004 69.9766 415.352 69.7656 413.57 69.3438C411.812 68.9219 410.113 68.2539 408.473 67.3398C406.855 66.4492 405.508 65.2891 404.43 63.8594L408.613 58.375C409.879 59.8516 411.309 60.9648 412.902 61.7148C414.496 62.4883 416.219 62.875 418.07 62.875C419.945 62.875 421.539 62.5234 422.852 61.8203C424.188 61.1406 425.207 60.1328 425.91 58.7969C426.637 57.4844 427 55.8672 427 53.9453V25.6445L427.879 16.9609ZM402.18 36.4375V35.6992C402.18 32.793 402.531 30.1562 403.234 27.7891C403.938 25.3984 404.945 23.3477 406.258 21.6367C407.594 19.9258 409.199 18.6016 411.074 17.6641C412.973 16.7266 415.105 16.2578 417.473 16.2578C419.98 16.2578 422.09 16.7148 423.801 17.6289C425.535 18.543 426.965 19.8438 428.09 21.5312C429.238 23.2188 430.129 25.2227 430.762 27.543C431.418 29.8398 431.922 32.3711 432.273 35.1367V37.1406C431.945 39.8359 431.418 42.3086 430.691 44.5586C429.988 46.8086 429.051 48.7773 427.879 50.4648C426.707 52.1289 425.254 53.418 423.52 54.332C421.785 55.2461 419.746 55.7031 417.402 55.7031C415.059 55.7031 412.949 55.2227 411.074 54.2617C409.199 53.3008 407.594 51.9531 406.258 50.2188C404.945 48.4844 403.938 46.4453 403.234 44.1016C402.531 41.7578 402.18 39.2031 402.18 36.4375ZM411.461 35.6992V36.4375C411.461 38.0781 411.625 39.6133 411.953 41.043C412.281 42.4727 412.785 43.7383 413.465 44.8398C414.145 45.918 415 46.7617 416.031 47.3711C417.062 47.9805 418.293 48.2852 419.723 48.2852C421.645 48.2852 423.215 47.8867 424.434 47.0898C425.676 46.2695 426.613 45.1562 427.246 43.75C427.902 42.3203 428.324 40.7148 428.512 38.9336V33.4141C428.395 32.0078 428.137 30.707 427.738 29.5117C427.363 28.3164 426.836 27.2852 426.156 26.418C425.477 25.5508 424.609 24.8711 423.555 24.3789C422.5 23.8867 421.246 23.6406 419.793 23.6406C418.387 23.6406 417.156 23.957 416.102 24.5898C415.047 25.1992 414.18 26.0547 413.5 27.1562C412.82 28.2578 412.305 29.5352 411.953 30.9883C411.625 32.4414 411.461 34.0117 411.461 35.6992Z" fill="white"/>
</svg>
