<svg width="509" height="82" viewBox="0 0 509 82" fill="none" xmlns="http://www.w3.org/2000/svg">
<path d="M30.5098 19.6211H39.4922V62.7695C39.4922 66.7617 38.6445 70.1523 36.9492 72.9414C35.2539 75.7305 32.8887 77.8496 29.8535 79.2988C26.8184 80.7754 23.3047 81.5137 19.3125 81.5137C17.6172 81.5137 15.7305 81.2676 13.6523 80.7754C11.6016 80.2832 9.60547 79.4902 7.66406 78.3965C5.75 77.3301 4.15039 75.9219 2.86523 74.1719L7.5 68.3477C9.08594 70.2344 10.8359 71.6152 12.75 72.4902C14.6641 73.3652 16.6738 73.8027 18.7793 73.8027C21.0488 73.8027 22.9766 73.3789 24.5625 72.5313C26.1758 71.7109 27.4199 70.4941 28.2949 68.8809C29.1699 67.2676 29.6074 65.2988 29.6074 62.9746V29.6699L30.5098 19.6211ZM0.363282 42.3027V41.4414C0.363282 38.0781 0.773438 35.0156 1.59375 32.2539C2.41406 29.4648 3.58984 27.0723 5.12109 25.0762C6.65234 23.0527 8.51172 21.5078 10.6992 20.4414C12.8867 19.3477 15.3613 18.8008 18.123 18.8008C20.9941 18.8008 23.4414 19.3203 25.4648 20.3594C27.5156 21.3984 29.2246 22.8887 30.5918 24.8301C31.959 26.7441 33.0254 29.041 33.791 31.7207C34.584 34.373 35.1719 37.3262 35.5547 40.5801V43.3281C35.1992 46.5 34.5977 49.3984 33.75 52.0234C32.9023 54.6484 31.7813 56.918 30.3867 58.832C28.9922 60.7461 27.2695 62.2227 25.2188 63.2617C23.1953 64.3008 20.8027 64.8203 18.041 64.8203C15.334 64.8203 12.8867 64.2598 10.6992 63.1387C8.53906 62.0176 6.67969 60.4453 5.12109 58.4219C3.58984 56.3984 2.41406 54.0195 1.59375 51.2852C0.773438 48.5234 0.363282 45.5293 0.363282 42.3027ZM10.248 41.4414V42.3027C10.248 44.3262 10.4395 46.2129 10.8223 47.9629C11.2324 49.7129 11.8477 51.2578 12.668 52.5977C13.5156 53.9102 14.582 54.9492 15.8672 55.7148C17.1797 56.4531 18.7246 56.8223 20.502 56.8223C22.8262 56.8223 24.7266 56.3301 26.2031 55.3457C27.707 54.3613 28.8555 53.0352 29.6484 51.3672C30.4688 49.6719 31.043 47.7852 31.3711 45.707V38.2832C31.207 36.6699 30.8652 35.166 30.3457 33.7715C29.8535 32.377 29.1836 31.1602 28.3359 30.1211C27.4883 29.0547 26.4219 28.2344 25.1367 27.6602C23.8516 27.0586 22.334 26.7578 20.584 26.7578C18.8066 26.7578 17.2617 27.1406 15.9492 27.9062C14.6367 28.6719 13.5566 29.7246 12.709 31.0645C11.8887 32.4043 11.2734 33.9629 10.8633 35.7402C10.4531 37.5176 10.248 39.418 10.248 41.4414ZM59.6719 28.0703V64H49.7871V19.6211H59.2207L59.6719 28.0703ZM73.2481 19.334L73.166 28.5215C72.5645 28.4121 71.9082 28.3301 71.1973 28.2754C70.5137 28.2207 69.8301 28.1934 69.1465 28.1934C67.4512 28.1934 65.9609 28.4394 64.6758 28.9316C63.3906 29.3965 62.3106 30.0801 61.4356 30.9824C60.5879 31.8574 59.9316 32.9238 59.4668 34.1816C59.002 35.4395 58.7285 36.8477 58.6465 38.4062L56.3906 38.5703C56.3906 35.7812 56.6641 33.1973 57.2109 30.8184C57.7578 28.4394 58.5781 26.3477 59.6719 24.543C60.793 22.7383 62.1875 21.3301 63.8555 20.3184C65.5508 19.3066 67.5059 18.8008 69.7207 18.8008C70.3223 18.8008 70.9648 18.8555 71.6484 18.9648C72.3594 19.0742 72.8926 19.1973 73.2481 19.334ZM98.1856 64.8203C94.9043 64.8203 91.9375 64.2871 89.2852 63.2207C86.6602 62.127 84.418 60.6094 82.5586 58.668C80.7266 56.7266 79.3184 54.4434 78.334 51.8184C77.3496 49.1934 76.8574 46.3633 76.8574 43.3281V41.6875C76.8574 38.2148 77.3633 35.0703 78.375 32.2539C79.3867 29.4375 80.7949 27.0312 82.5996 25.0352C84.4043 23.0117 86.5371 21.4668 88.9981 20.4004C91.459 19.334 94.125 18.8008 96.9961 18.8008C100.168 18.8008 102.943 19.334 105.322 20.4004C107.701 21.4668 109.67 22.9707 111.229 24.9121C112.814 26.8262 113.99 29.1094 114.756 31.7617C115.549 34.4141 115.945 37.3398 115.945 40.5391V44.7637H81.6563V37.668H106.184V36.8887C106.129 35.1113 105.773 33.4434 105.117 31.8848C104.488 30.3262 103.518 29.0684 102.205 28.1113C100.893 27.1543 99.1426 26.6758 96.9551 26.6758C95.3145 26.6758 93.8516 27.0312 92.5664 27.7422C91.3086 28.4258 90.2559 29.4238 89.4082 30.7363C88.5606 32.0488 87.9043 33.6348 87.4395 35.4941C87.002 37.3262 86.7832 39.3906 86.7832 41.6875V43.3281C86.7832 45.2695 87.043 47.0742 87.5625 48.7422C88.1094 50.3828 88.9024 51.8184 89.9414 53.0488C90.9805 54.2793 92.2383 55.25 93.7149 55.9609C95.1914 56.6445 96.8731 56.9863 98.7598 56.9863C101.139 56.9863 103.258 56.5078 105.117 55.5508C106.977 54.5937 108.59 53.2402 109.957 51.4902L115.166 56.5352C114.209 57.9297 112.965 59.2695 111.434 60.5547C109.902 61.8125 108.029 62.8379 105.814 63.6309C103.627 64.4238 101.084 64.8203 98.1856 64.8203ZM143.221 64.8203C139.939 64.8203 136.973 64.2871 134.32 63.2207C131.695 62.127 129.453 60.6094 127.594 58.668C125.762 56.7266 124.354 54.4434 123.369 51.8184C122.385 49.1934 121.893 46.3633 121.893 43.3281V41.6875C121.893 38.2148 122.398 35.0703 123.41 32.2539C124.422 29.4375 125.83 27.0312 127.635 25.0352C129.439 23.0117 131.572 21.4668 134.033 20.4004C136.494 19.334 139.16 18.8008 142.031 18.8008C145.203 18.8008 147.979 19.334 150.357 20.4004C152.736 21.4668 154.705 22.9707 156.264 24.9121C157.85 26.8262 159.025 29.1094 159.791 31.7617C160.584 34.4141 160.98 37.3398 160.98 40.5391V44.7637H126.691V37.668H151.219V36.8887C151.164 35.1113 150.809 33.4434 150.152 31.8848C149.523 30.3262 148.553 29.0684 147.24 28.1113C145.928 27.1543 144.178 26.6758 141.99 26.6758C140.35 26.6758 138.887 27.0312 137.602 27.7422C136.344 28.4258 135.291 29.4238 134.443 30.7363C133.596 32.0488 132.939 33.6348 132.475 35.4941C132.037 37.3262 131.818 39.3906 131.818 41.6875V43.3281C131.818 45.2695 132.078 47.0742 132.598 48.7422C133.145 50.3828 133.938 51.8184 134.977 53.0488C136.016 54.2793 137.273 55.25 138.75 55.9609C140.227 56.6445 141.908 56.9863 143.795 56.9863C146.174 56.9863 148.293 56.5078 150.152 55.5508C152.012 54.5937 153.625 53.2402 154.992 51.4902L160.201 56.5352C159.244 57.9297 158 59.2695 156.469 60.5547C154.938 61.8125 153.064 62.8379 150.85 63.6309C148.662 64.4238 146.119 64.8203 143.221 64.8203ZM178.494 29.0957V64H168.609V19.6211H177.92L178.494 29.0957ZM176.73 40.1699L173.531 40.1289C173.559 36.9844 173.996 34.0996 174.844 31.4746C175.719 28.8496 176.922 26.5937 178.453 24.707C180.012 22.8203 181.871 21.3711 184.031 20.3594C186.191 19.3203 188.598 18.8008 191.25 18.8008C193.383 18.8008 195.311 19.1016 197.033 19.7031C198.783 20.2773 200.273 21.2207 201.504 22.5332C202.762 23.8457 203.719 25.5547 204.375 27.6602C205.031 29.7383 205.359 32.2949 205.359 35.3301V64H195.434V35.2891C195.434 33.1562 195.119 31.4746 194.49 30.2441C193.889 28.9863 193 28.0977 191.824 27.5781C190.676 27.0312 189.24 26.7578 187.518 26.7578C185.822 26.7578 184.305 27.1133 182.965 27.8242C181.625 28.5352 180.49 29.5059 179.561 30.7363C178.658 31.9668 177.961 33.3887 177.469 35.002C176.977 36.6152 176.73 38.3379 176.73 40.1699Z" fill="#62B252"/>
<path d="M255.918 51.8594C255.918 50.9297 255.672 50.0957 255.18 49.3574C254.688 48.6191 253.758 47.9492 252.391 47.3477C251.051 46.7187 249.082 46.1309 246.484 45.584C244.188 45.0918 242.068 44.4766 240.127 43.7383C238.186 43 236.518 42.1113 235.123 41.0723C233.729 40.0059 232.635 38.7617 231.842 37.3398C231.076 35.8906 230.693 34.2227 230.693 32.3359C230.693 30.5039 231.09 28.7812 231.883 27.168C232.676 25.5273 233.824 24.0918 235.328 22.8613C236.832 21.6035 238.664 20.6191 240.824 19.9082C242.984 19.1699 245.418 18.8008 248.125 18.8008C251.898 18.8008 255.139 19.416 257.846 20.6465C260.58 21.8769 262.672 23.5723 264.121 25.7324C265.57 27.8652 266.295 30.2715 266.295 32.9512H255.467C255.467 31.7754 255.193 30.709 254.647 29.752C254.127 28.7949 253.32 28.0293 252.227 27.4551C251.133 26.8535 249.752 26.5527 248.084 26.5527C246.58 26.5527 245.309 26.7988 244.27 27.291C243.258 27.7832 242.492 28.4258 241.973 29.2187C241.453 30.0117 241.193 30.8867 241.193 31.8437C241.193 32.5547 241.33 33.1973 241.604 33.7715C241.904 34.3184 242.383 34.8242 243.039 35.2891C243.695 35.7539 244.584 36.1777 245.705 36.5605C246.854 36.9434 248.262 37.3125 249.93 37.668C253.238 38.3242 256.123 39.1992 258.584 40.293C261.072 41.3594 263.014 42.7812 264.408 44.5586C265.803 46.3359 266.5 48.6055 266.5 51.3672C266.5 53.3359 266.076 55.1406 265.229 56.7812C264.381 58.3945 263.15 59.8027 261.537 61.0059C259.924 62.209 257.996 63.1523 255.754 63.8359C253.512 64.4922 250.982 64.8203 248.166 64.8203C244.092 64.8203 240.647 64.0957 237.83 62.6465C235.014 61.1699 232.881 59.3105 231.432 57.0684C229.982 54.7988 229.258 52.4473 229.258 50.0137H239.635C239.717 51.7363 240.182 53.1172 241.029 54.1562C241.877 55.1953 242.943 55.9473 244.229 56.4121C245.541 56.8496 246.922 57.0684 248.371 57.0684C250.012 57.0684 251.393 56.8496 252.514 56.4121C253.635 55.9473 254.482 55.332 255.057 54.5664C255.631 53.7734 255.918 52.8711 255.918 51.8594ZM285.367 0.999994V64H274.498V0.999994H285.367ZM283.645 40.2109H280.445C280.445 37.1211 280.856 34.2773 281.676 31.6797C282.496 29.082 283.658 26.8262 285.162 24.9121C286.666 22.9707 288.457 21.4668 290.535 20.4004C292.641 19.334 294.965 18.8008 297.508 18.8008C299.695 18.8008 301.678 19.1152 303.455 19.7441C305.26 20.3457 306.805 21.3164 308.09 22.6562C309.375 23.9961 310.359 25.7461 311.043 27.9062C311.754 30.0391 312.109 32.6367 312.109 35.6992V64H301.199V35.6172C301.199 33.5664 300.898 31.9531 300.297 30.7773C299.695 29.5742 298.834 28.7129 297.713 28.1934C296.619 27.6738 295.266 27.4141 293.652 27.4141C291.902 27.4141 290.398 27.7559 289.141 28.4394C287.883 29.0957 286.844 30.0117 286.023 31.1875C285.231 32.3633 284.629 33.7168 284.219 35.248C283.836 36.7793 283.645 38.4336 283.645 40.2109ZM333.15 19.6211V64H322.281V19.6211H333.15ZM321.543 8.01367C321.543 6.40039 322.09 5.06054 323.184 3.99414C324.305 2.92773 325.809 2.39453 327.695 2.39453C329.582 2.39453 331.072 2.92773 332.166 3.99414C333.287 5.06054 333.848 6.40039 333.848 8.01367C333.848 9.5996 333.287 10.9258 332.166 11.9922C331.072 13.0586 329.582 13.5918 327.695 13.5918C325.809 13.5918 324.305 13.0586 323.184 11.9922C322.09 10.9258 321.543 9.5996 321.543 8.01367ZM357.678 64H346.768V15.5195C346.768 12.1836 347.41 9.38085 348.695 7.11132C349.981 4.81445 351.813 3.07812 354.191 1.90234C356.57 0.726557 359.373 0.138666 362.6 0.138666C363.666 0.138666 364.678 0.207025 365.635 0.343744C366.619 0.480463 367.59 0.671869 368.547 0.917963L368.342 9.1621C367.822 9.02539 367.248 8.92968 366.619 8.87499C366.018 8.82031 365.348 8.79296 364.609 8.79296C363.133 8.79296 361.875 9.05273 360.836 9.57226C359.797 10.0918 359.004 10.8574 358.457 11.8691C357.938 12.8535 357.678 14.0703 357.678 15.5195V64ZM366.66 19.6211V27.4141H340.082V19.6211H366.66ZM394.346 19.6211V27.4141H368.916V19.6211H394.346ZM375.725 8.71093H386.594V51.2031C386.594 52.5156 386.772 53.5273 387.127 54.2383C387.482 54.9492 388.016 55.4277 388.727 55.6738C389.438 55.9199 390.285 56.043 391.27 56.043C391.981 56.043 392.637 56.002 393.238 55.9199C393.84 55.8379 394.346 55.7559 394.756 55.6738L394.797 63.7949C393.895 64.0957 392.869 64.3418 391.721 64.5332C390.6 64.7246 389.328 64.8203 387.906 64.8203C385.473 64.8203 383.34 64.4102 381.508 63.5898C379.676 62.7422 378.254 61.3887 377.242 59.5293C376.23 57.6426 375.725 55.1543 375.725 52.0645V8.71093ZM413.049 19.6211V64H402.18V19.6211H413.049ZM401.441 8.01367C401.441 6.40039 401.988 5.06054 403.082 3.99414C404.203 2.92773 405.707 2.39453 407.594 2.39453C409.481 2.39453 410.971 2.92773 412.064 3.99414C413.186 5.06054 413.746 6.40039 413.746 8.01367C413.746 9.5996 413.186 10.9258 412.064 11.9922C410.971 13.0586 409.481 13.5918 407.594 13.5918C405.707 13.5918 404.203 13.0586 403.082 11.9922C401.988 10.9258 401.441 9.5996 401.441 8.01367ZM434.008 29.0957V64H423.18V19.6211H433.352L434.008 29.0957ZM432.285 40.2109H429.086C429.113 36.9844 429.551 34.0586 430.398 31.4336C431.246 28.8086 432.436 26.5527 433.967 24.666C435.525 22.7793 437.371 21.3301 439.504 20.3184C441.637 19.3066 444.016 18.8008 446.641 18.8008C448.773 18.8008 450.701 19.1016 452.424 19.7031C454.147 20.3047 455.623 21.2617 456.854 22.5742C458.111 23.8867 459.068 25.6094 459.725 27.7422C460.408 29.8477 460.75 32.4453 460.75 35.5352V64H449.84V35.4531C449.84 33.4297 449.539 31.8301 448.938 30.6543C448.363 29.4785 447.516 28.6445 446.395 28.1523C445.301 27.6602 443.947 27.4141 442.334 27.4141C440.666 27.4141 439.203 27.7559 437.945 28.4394C436.715 29.0957 435.676 30.0117 434.828 31.1875C434.008 32.3633 433.379 33.7168 432.941 35.248C432.504 36.7793 432.285 38.4336 432.285 40.2109ZM498.525 19.6211H508.369V62.6465C508.369 66.666 507.494 70.0703 505.744 72.8594C504.022 75.6758 501.602 77.8086 498.484 79.2578C495.367 80.7344 491.744 81.4727 487.615 81.4727C485.838 81.4727 483.91 81.2266 481.832 80.7344C479.781 80.2422 477.799 79.4629 475.885 78.3965C473.998 77.3574 472.426 76.0039 471.168 74.3359L476.049 67.9375C477.525 69.6602 479.193 70.959 481.053 71.834C482.912 72.7363 484.922 73.1875 487.082 73.1875C489.27 73.1875 491.129 72.7773 492.66 71.957C494.219 71.1641 495.408 69.9883 496.229 68.4297C497.076 66.8984 497.5 65.0117 497.5 62.7695V29.752L498.525 19.6211ZM468.543 42.3437V41.4824C468.543 38.0918 468.953 35.0156 469.773 32.2539C470.594 29.4648 471.77 27.0723 473.301 25.0762C474.859 23.0801 476.732 21.5352 478.92 20.4414C481.135 19.3477 483.623 18.8008 486.385 18.8008C489.311 18.8008 491.772 19.334 493.768 20.4004C495.791 21.4668 497.459 22.9844 498.772 24.9531C500.111 26.9219 501.15 29.2598 501.889 31.9668C502.654 34.6465 503.242 37.5996 503.652 40.8262V43.1641C503.27 46.3086 502.654 49.1934 501.807 51.8184C500.986 54.4434 499.893 56.7402 498.525 58.709C497.158 60.6504 495.463 62.1543 493.439 63.2207C491.416 64.2871 489.037 64.8203 486.303 64.8203C483.568 64.8203 481.107 64.2598 478.92 63.1387C476.732 62.0176 474.859 60.4453 473.301 58.4219C471.77 56.3984 470.594 54.0195 469.773 51.2852C468.953 48.5508 468.543 45.5703 468.543 42.3437ZM479.371 41.4824V42.3437C479.371 44.2578 479.563 46.0488 479.945 47.7168C480.328 49.3848 480.916 50.8613 481.709 52.1465C482.502 53.4043 483.5 54.3887 484.703 55.0996C485.906 55.8105 487.342 56.166 489.01 56.166C491.252 56.166 493.084 55.7012 494.506 54.7715C495.955 53.8145 497.049 52.5156 497.787 50.875C498.553 49.207 499.045 47.334 499.264 45.2559V38.8164C499.127 37.1758 498.826 35.6582 498.361 34.2637C497.924 32.8691 497.309 31.666 496.516 30.6543C495.723 29.6426 494.711 28.8496 493.481 28.2754C492.25 27.7012 490.787 27.4141 489.092 27.4141C487.451 27.4141 486.016 27.7832 484.785 28.5215C483.555 29.2324 482.543 30.2305 481.75 31.5156C480.957 32.8008 480.356 34.291 479.945 35.9863C479.563 37.6816 479.371 39.5137 479.371 41.4824Z" fill="#B3B3B3"/>
</svg>
